<svg xmlns="http://www.w3.org/2000/svg" viewBox="0 0 1600 1000" preserveAspectRatio="xMidYMid slice"><defs><radialGradient id="glow1" cx="25%" cy="30%" r="60%"><stop offset="0%" stop-color="#2563eb" stop-opacity="0.30"/><stop offset="100%" stop-color="#2563eb" stop-opacity="0"/></radialGradient><radialGradient id="glow2" cx="80%" cy="75%" r="55%"><stop offset="0%" stop-color="#f59e0b" stop-opacity="0.18"/><stop offset="100%" stop-color="#f59e0b" stop-opacity="0"/></radialGradient><linearGradient id="base" x1="0" y1="0" x2="1" y2="1"><stop offset="0%" stop-color="#0b1220"/><stop offset="55%" stop-color="#0f172a"/><stop offset="100%" stop-color="#111c33"/></linearGradient></defs><rect width="1600" height="1000" fill="url(#base)"/><rect width="1600" height="1000" fill="url(#glow1)"/><rect width="1600" height="1000" fill="url(#glow2)"/><line x1="0" y1="0" x2="0" y2="1000" stroke="#94a3b8" stroke-opacity="0.025"/><line x1="100" y1="0" x2="100" y2="1000" stroke="#94a3b8" stroke-opacity="0.025"/><line x1="200" y1="0" x2="200" y2="1000" stroke="#94a3b8" stroke-opacity="0.025"/><line x1="300" y1="0" x2="300" y2="1000" stroke="#94a3b8" stroke-opacity="0.025"/><line x1="400" y1="0" x2="400" y2="1000" stroke="#94a3b8" stroke-opacity="0.025"/><line x1="500" y1="0" x2="500" y2="1000" stroke="#94a3b8" stroke-opacity="0.025"/><line x1="600" y1="0" x2="600" y2="1000" stroke="#94a3b8" stroke-opacity="0.025"/><line x1="700" y1="0" x2="700" y2="1000" stroke="#94a3b8" stroke-opacity="0.025"/><line x1="800" y1="0" x2="800" y2="1000" stroke="#94a3b8" stroke-opacity="0.025"/><line x1="900" y1="0" x2="900" y2="1000" stroke="#94a3b8" stroke-opacity="0.025"/><line x1="1000" y1="0" x2="1000" y2="1000" stroke="#94a3b8" stroke-opacity="0.025"/><line x1="1100" y1="0" x2="1100" y2="1000" stroke="#94a3b8" stroke-opacity="0.025"/><line x1="1200" y1="0" x2="1200" y2="1000" stroke="#94a3b8" stroke-opacity="0.025"/><line x1="1300" y1="0" x2="1300" y2="1000" stroke="#94a3b8" stroke-opacity="0.025"/><line x1="1400" y1="0" x2="1400" y2="1000" stroke="#94a3b8" stroke-opacity="0.025"/><line x1="1500" y1="0" x2="1500" y2="1000" stroke="#94a3b8" stroke-opacity="0.025"/><line x1="1600" y1="0" x2="1600" y2="1000" stroke="#94a3b8" stroke-opacity="0.025"/><line x1="0" y1="0" x2="1600" y2="0" stroke="#94a3b8" stroke-opacity="0.025"/><line x1="0" y1="100" x2="1600" y2="100" stroke="#94a3b8" stroke-opacity="0.025"/><line x1="0" y1="200" x2="1600" y2="200" stroke="#94a3b8" stroke-opacity="0.025"/><line x1="0" y1="300" x2="1600" y2="300" stroke="#94a3b8" stroke-opacity="0.025"/><line x1="0" y1="400" x2="1600" y2="400" stroke="#94a3b8" stroke-opacity="0.025"/><line x1="0" y1="500" x2="1600" y2="500" stroke="#94a3b8" stroke-opacity="0.025"/><line x1="0" y1="600" x2="1600" y2="600" stroke="#94a3b8" stroke-opacity="0.025"/><line x1="0" y1="700" x2="1600" y2="700" stroke="#94a3b8" stroke-opacity="0.025"/><line x1="0" y1="800" x2="1600" y2="800" stroke="#94a3b8" stroke-opacity="0.025"/><line x1="0" y1="900" x2="1600" y2="900" stroke="#94a3b8" stroke-opacity="0.025"/><line x1="0" y1="1000" x2="1600" y2="1000" stroke="#94a3b8" stroke-opacity="0.025"/><polygon points="998,605 973,519 985,444 1022,370 1084,308 1159,271 1246,258 1332,271 1407,308 1463,370 1494,432 1506,494 1500,556 1475,605 1494,630 1487,680 1444,711 1382,711 1339,680 1320,742 1283,742 1289,680 1227,667 1134,643 1060,630" fill="none" stroke="#60a5fa" stroke-opacity="0.10" stroke-width="1.5" stroke-linejoin="round"/><line x1="1149" y1="315" x2="1077" y2="322" stroke="#60a5fa" stroke-opacity="0.06" stroke-width="1"/><line x1="1149" y1="315" x2="1174" y2="297" stroke="#60a5fa" stroke-opacity="0.06" stroke-width="1"/><line x1="1149" y1="315" x2="1160" y2="385" stroke="#60a5fa" stroke-opacity="0.06" stroke-width="1"/><line x1="1149" y1="315" x2="1152" y2="359" stroke="#60a5fa" stroke-opacity="0.06" stroke-width="1"/><line x1="1280" y1="448" x2="1306" y2="467" stroke="#60a5fa" stroke-opacity="0.06" stroke-width="1"/><line x1="1280" y1="448" x2="1344" y2="452" stroke="#60a5fa" stroke-opacity="0.06" stroke-width="1"/><line x1="1280" y1="448" x2="1229" y2="407" stroke="#60a5fa" stroke-opacity="0.06" stroke-width="1"/><line x1="1280" y1="448" x2="1308" y2="504" stroke="#60a5fa" stroke-opacity="0.06" stroke-width="1"/><line x1="1280" y1="448" x2="1313" y2="384" stroke="#60a5fa" stroke-opacity="0.06" stroke-width="1"/><line x1="984" y1="536" x2="1042" y2="524" stroke="#60a5fa" stroke-opacity="0.06" stroke-width="1"/><line x1="984" y1="536" x2="998" y2="499" stroke="#60a5fa" stroke-opacity="0.06" stroke-width="1"/><line x1="984" y1="536" x2="1055" y2="515" stroke="#60a5fa" stroke-opacity="0.06" stroke-width="1"/><line x1="1306" y1="467" x2="1344" y2="452" stroke="#60a5fa" stroke-opacity="0.06" stroke-width="1"/><line x1="1306" y1="467" x2="1370" y2="486" stroke="#60a5fa" stroke-opacity="0.06" stroke-width="1"/><line x1="1306" y1="467" x2="1308" y2="504" stroke="#60a5fa" stroke-opacity="0.06" stroke-width="1"/><line x1="1060" y1="582" x2="1099" y2="577" stroke="#60a5fa" stroke-opacity="0.06" stroke-width="1"/><line x1="1060" y1="582" x2="1042" y2="524" stroke="#60a5fa" stroke-opacity="0.06" stroke-width="1"/><line x1="1060" y1="582" x2="1093" y2="522" stroke="#60a5fa" stroke-opacity="0.06" stroke-width="1"/><line x1="1060" y1="582" x2="1089" y2="542" stroke="#60a5fa" stroke-opacity="0.06" stroke-width="1"/><line x1="1060" y1="582" x2="1097" y2="585" stroke="#60a5fa" stroke-opacity="0.06" stroke-width="1"/><line x1="1060" y1="582" x2="1055" y2="515" stroke="#60a5fa" stroke-opacity="0.06" stroke-width="1"/><line x1="1344" y1="452" x2="1370" y2="486" stroke="#60a5fa" stroke-opacity="0.06" stroke-width="1"/><line x1="1344" y1="452" x2="1308" y2="504" stroke="#60a5fa" stroke-opacity="0.06" stroke-width="1"/><line x1="1370" y1="486" x2="1308" y2="504" stroke="#60a5fa" stroke-opacity="0.06" stroke-width="1"/><line x1="1370" y1="486" x2="1413" y2="517" stroke="#60a5fa" stroke-opacity="0.06" stroke-width="1"/><line x1="1143" y1="584" x2="1099" y2="577" stroke="#60a5fa" stroke-opacity="0.06" stroke-width="1"/><line x1="1143" y1="584" x2="1187" y2="636" stroke="#60a5fa" stroke-opacity="0.06" stroke-width="1"/><line x1="1143" y1="584" x2="1177" y2="572" stroke="#60a5fa" stroke-opacity="0.06" stroke-width="1"/><line x1="1143" y1="584" x2="1089" y2="542" stroke="#60a5fa" stroke-opacity="0.06" stroke-width="1"/><line x1="1143" y1="584" x2="1165" y2="561" stroke="#60a5fa" stroke-opacity="0.06" stroke-width="1"/><line x1="1143" y1="584" x2="1097" y2="585" stroke="#60a5fa" stroke-opacity="0.06" stroke-width="1"/><line x1="1229" y1="407" x2="1191" y2="468" stroke="#60a5fa" stroke-opacity="0.06" stroke-width="1"/><line x1="1229" y1="407" x2="1160" y2="385" stroke="#60a5fa" stroke-opacity="0.06" stroke-width="1"/><line x1="1229" y1="407" x2="1221" y2="335" stroke="#60a5fa" stroke-opacity="0.06" stroke-width="1"/><line x1="1441" y1="654" x2="1483" y2="653" stroke="#60a5fa" stroke-opacity="0.06" stroke-width="1"/><line x1="1441" y1="654" x2="1455" y2="680" stroke="#60a5fa" stroke-opacity="0.06" stroke-width="1"/><line x1="1099" y1="577" x2="1093" y2="522" stroke="#60a5fa" stroke-opacity="0.06" stroke-width="1"/><line x1="1099" y1="577" x2="1089" y2="542" stroke="#60a5fa" stroke-opacity="0.06" stroke-width="1"/><line x1="1099" y1="577" x2="1165" y2="561" stroke="#60a5fa" stroke-opacity="0.06" stroke-width="1"/><line x1="1099" y1="577" x2="1097" y2="585" stroke="#60a5fa" stroke-opacity="0.06" stroke-width="1"/><line x1="1400" y1="400" x2="1458" y2="397" stroke="#60a5fa" stroke-opacity="0.06" stroke-width="1"/><line x1="1400" y1="400" x2="1397" y2="326" stroke="#60a5fa" stroke-opacity="0.06" stroke-width="1"/><line x1="1042" y1="524" x2="998" y2="499" stroke="#60a5fa" stroke-opacity="0.06" stroke-width="1"/><line x1="1042" y1="524" x2="1093" y2="522" stroke="#60a5fa" stroke-opacity="0.06" stroke-width="1"/><line x1="1042" y1="524" x2="1089" y2="542" stroke="#60a5fa" stroke-opacity="0.06" stroke-width="1"/><line x1="1042" y1="524" x2="1055" y2="515" stroke="#60a5fa" stroke-opacity="0.06" stroke-width="1"/><line x1="1422" y1="576" x2="1379" y2="590" stroke="#60a5fa" stroke-opacity="0.06" stroke-width="1"/><line x1="1422" y1="576" x2="1413" y2="517" stroke="#60a5fa" stroke-opacity="0.06" stroke-width="1"/><line x1="1422" y1="576" x2="1398" y2="566" stroke="#60a5fa" stroke-opacity="0.06" stroke-width="1"/><line x1="1379" y1="590" x2="1398" y2="566" stroke="#60a5fa" stroke-opacity="0.06" stroke-width="1"/><line x1="1308" y1="504" x2="1237" y2="521" stroke="#60a5fa" stroke-opacity="0.06" stroke-width="1"/><line x1="1308" y1="504" x2="1259" y2="551" stroke="#60a5fa" stroke-opacity="0.06" stroke-width="1"/><line x1="1242" y1="633" x2="1187" y2="636" stroke="#60a5fa" stroke-opacity="0.06" stroke-width="1"/><line x1="1242" y1="633" x2="1268" y2="604" stroke="#60a5fa" stroke-opacity="0.06" stroke-width="1"/><line x1="1187" y1="636" x2="1177" y2="572" stroke="#60a5fa" stroke-opacity="0.06" stroke-width="1"/><line x1="1028" y1="375" x2="1057" y2="365" stroke="#60a5fa" stroke-opacity="0.06" stroke-width="1"/><line x1="1028" y1="375" x2="1077" y2="322" stroke="#60a5fa" stroke-opacity="0.06" stroke-width="1"/><line x1="1028" y1="375" x2="1011" y2="446" stroke="#60a5fa" stroke-opacity="0.06" stroke-width="1"/><line x1="1028" y1="375" x2="1085" y2="362" stroke="#60a5fa" stroke-opacity="0.06" stroke-width="1"/><line x1="1028" y1="375" x2="1070" y2="348" stroke="#60a5fa" stroke-opacity="0.06" stroke-width="1"/><line x1="998" y1="499" x2="1011" y2="446" stroke="#60a5fa" stroke-opacity="0.06" stroke-width="1"/><line x1="998" y1="499" x2="1055" y2="515" stroke="#60a5fa" stroke-opacity="0.06" stroke-width="1"/><line x1="1121" y1="478" x2="1093" y2="522" stroke="#60a5fa" stroke-opacity="0.06" stroke-width="1"/><line x1="1121" y1="478" x2="1191" y2="468" stroke="#60a5fa" stroke-opacity="0.06" stroke-width="1"/><line x1="1121" y1="478" x2="1104" y2="436" stroke="#60a5fa" stroke-opacity="0.06" stroke-width="1"/><line x1="1121" y1="478" x2="1110" y2="448" stroke="#60a5fa" stroke-opacity="0.06" stroke-width="1"/><line x1="1121" y1="478" x2="1089" y2="542" stroke="#60a5fa" stroke-opacity="0.06" stroke-width="1"/><line x1="1121" y1="478" x2="1109" y2="481" stroke="#60a5fa" stroke-opacity="0.06" stroke-width="1"/><line x1="1121" y1="478" x2="1167" y2="505" stroke="#60a5fa" stroke-opacity="0.06" stroke-width="1"/><line x1="1057" y1="365" x2="1077" y2="322" stroke="#60a5fa" stroke-opacity="0.06" stroke-width="1"/><line x1="1057" y1="365" x2="1085" y2="362" stroke="#60a5fa" stroke-opacity="0.06" stroke-width="1"/><line x1="1057" y1="365" x2="1070" y2="348" stroke="#60a5fa" stroke-opacity="0.06" stroke-width="1"/><line x1="1057" y1="365" x2="1104" y2="403" stroke="#60a5fa" stroke-opacity="0.06" stroke-width="1"/><line x1="1093" y1="522" x2="1089" y2="542" stroke="#60a5fa" stroke-opacity="0.06" stroke-width="1"/><line x1="1093" y1="522" x2="1097" y2="585" stroke="#60a5fa" stroke-opacity="0.06" stroke-width="1"/><line x1="1093" y1="522" x2="1109" y2="481" stroke="#60a5fa" stroke-opacity="0.06" stroke-width="1"/><line x1="1093" y1="522" x2="1055" y2="515" stroke="#60a5fa" stroke-opacity="0.06" stroke-width="1"/><line x1="1313" y1="384" x2="1329" y2="313" stroke="#60a5fa" stroke-opacity="0.06" stroke-width="1"/><line x1="1177" y1="572" x2="1165" y2="561" stroke="#60a5fa" stroke-opacity="0.06" stroke-width="1"/><line x1="1177" y1="572" x2="1167" y2="505" stroke="#60a5fa" stroke-opacity="0.06" stroke-width="1"/><line x1="1268" y1="604" x2="1259" y2="551" stroke="#60a5fa" stroke-opacity="0.06" stroke-width="1"/><line x1="1191" y1="468" x2="1237" y2="521" stroke="#60a5fa" stroke-opacity="0.06" stroke-width="1"/><line x1="1191" y1="468" x2="1167" y2="505" stroke="#60a5fa" stroke-opacity="0.06" stroke-width="1"/><line x1="1077" y1="322" x2="1085" y2="362" stroke="#60a5fa" stroke-opacity="0.06" stroke-width="1"/><line x1="1077" y1="322" x2="1070" y2="348" stroke="#60a5fa" stroke-opacity="0.06" stroke-width="1"/><line x1="1329" y1="313" x2="1276" y2="312" stroke="#60a5fa" stroke-opacity="0.06" stroke-width="1"/><line x1="1329" y1="313" x2="1397" y2="326" stroke="#60a5fa" stroke-opacity="0.06" stroke-width="1"/><line x1="1104" y1="436" x2="1110" y2="448" stroke="#60a5fa" stroke-opacity="0.06" stroke-width="1"/><line x1="1104" y1="436" x2="1104" y2="403" stroke="#60a5fa" stroke-opacity="0.06" stroke-width="1"/><line x1="1104" y1="436" x2="1109" y2="481" stroke="#60a5fa" stroke-opacity="0.06" stroke-width="1"/><line x1="1174" y1="297" x2="1152" y2="359" stroke="#60a5fa" stroke-opacity="0.06" stroke-width="1"/><line x1="1174" y1="297" x2="1221" y2="335" stroke="#60a5fa" stroke-opacity="0.06" stroke-width="1"/><line x1="1237" y1="521" x2="1167" y2="505" stroke="#60a5fa" stroke-opacity="0.06" stroke-width="1"/><line x1="1237" y1="521" x2="1259" y2="551" stroke="#60a5fa" stroke-opacity="0.06" stroke-width="1"/><line x1="1160" y1="385" x2="1152" y2="359" stroke="#60a5fa" stroke-opacity="0.06" stroke-width="1"/><line x1="1160" y1="385" x2="1104" y2="403" stroke="#60a5fa" stroke-opacity="0.06" stroke-width="1"/><line x1="1276" y1="312" x2="1221" y2="335" stroke="#60a5fa" stroke-opacity="0.06" stroke-width="1"/><line x1="1483" y1="653" x2="1455" y2="680" stroke="#60a5fa" stroke-opacity="0.06" stroke-width="1"/><line x1="1110" y1="448" x2="1104" y2="403" stroke="#60a5fa" stroke-opacity="0.06" stroke-width="1"/><line x1="1110" y1="448" x2="1109" y2="481" stroke="#60a5fa" stroke-opacity="0.06" stroke-width="1"/><line x1="1152" y1="359" x2="1085" y2="362" stroke="#60a5fa" stroke-opacity="0.06" stroke-width="1"/><line x1="1152" y1="359" x2="1104" y2="403" stroke="#60a5fa" stroke-opacity="0.06" stroke-width="1"/><line x1="1152" y1="359" x2="1221" y2="335" stroke="#60a5fa" stroke-opacity="0.06" stroke-width="1"/><line x1="1089" y1="542" x2="1097" y2="585" stroke="#60a5fa" stroke-opacity="0.06" stroke-width="1"/><line x1="1089" y1="542" x2="1109" y2="481" stroke="#60a5fa" stroke-opacity="0.06" stroke-width="1"/><line x1="1089" y1="542" x2="1055" y2="515" stroke="#60a5fa" stroke-opacity="0.06" stroke-width="1"/><line x1="1085" y1="362" x2="1070" y2="348" stroke="#60a5fa" stroke-opacity="0.06" stroke-width="1"/><line x1="1085" y1="362" x2="1104" y2="403" stroke="#60a5fa" stroke-opacity="0.06" stroke-width="1"/><line x1="1070" y1="348" x2="1104" y2="403" stroke="#60a5fa" stroke-opacity="0.06" stroke-width="1"/><line x1="1469" y1="518" x2="1413" y2="517" stroke="#60a5fa" stroke-opacity="0.06" stroke-width="1"/><line x1="1413" y1="517" x2="1398" y2="566" stroke="#60a5fa" stroke-opacity="0.06" stroke-width="1"/><line x1="1165" y1="561" x2="1097" y2="585" stroke="#60a5fa" stroke-opacity="0.06" stroke-width="1"/><line x1="1165" y1="561" x2="1167" y2="505" stroke="#60a5fa" stroke-opacity="0.06" stroke-width="1"/><line x1="1109" y1="481" x2="1167" y2="505" stroke="#60a5fa" stroke-opacity="0.06" stroke-width="1"/><line x1="1109" y1="481" x2="1055" y2="515" stroke="#60a5fa" stroke-opacity="0.06" stroke-width="1"/><circle cx="1149" cy="315" r="2" fill="#f59e0b" fill-opacity="0.22"/><circle cx="1280" cy="448" r="2" fill="#60a5fa" fill-opacity="0.22"/><circle cx="984" cy="536" r="2" fill="#60a5fa" fill-opacity="0.22"/><circle cx="1306" cy="467" r="2" fill="#60a5fa" fill-opacity="0.22"/><circle cx="1060" cy="582" r="2" fill="#60a5fa" fill-opacity="0.22"/><circle cx="1344" cy="452" r="2" fill="#60a5fa" fill-opacity="0.22"/><circle cx="1370" cy="486" r="2" fill="#60a5fa" fill-opacity="0.22"/><circle cx="1143" cy="584" r="2" fill="#60a5fa" fill-opacity="0.22"/><circle cx="1229" cy="407" r="2" fill="#60a5fa" fill-opacity="0.22"/><circle cx="1441" cy="654" r="2" fill="#f59e0b" fill-opacity="0.22"/><circle cx="1099" cy="577" r="2" fill="#60a5fa" fill-opacity="0.22"/><circle cx="1400" cy="400" r="2" fill="#60a5fa" fill-opacity="0.22"/><circle cx="1042" cy="524" r="2" fill="#60a5fa" fill-opacity="0.22"/><circle cx="1422" cy="576" r="2" fill="#60a5fa" fill-opacity="0.22"/><circle cx="1379" cy="590" r="2" fill="#60a5fa" fill-opacity="0.22"/><circle cx="1308" cy="504" r="2" fill="#60a5fa" fill-opacity="0.22"/><circle cx="1242" cy="633" r="2" fill="#60a5fa" fill-opacity="0.22"/><circle cx="1458" cy="397" r="2" fill="#60a5fa" fill-opacity="0.22"/><circle cx="1187" cy="636" r="2" fill="#f59e0b" fill-opacity="0.22"/><circle cx="1028" cy="375" r="2" fill="#60a5fa" fill-opacity="0.22"/><circle cx="998" cy="499" r="2" fill="#60a5fa" fill-opacity="0.22"/><circle cx="1121" cy="478" r="2" fill="#60a5fa" fill-opacity="0.22"/><circle cx="1057" cy="365" r="2" fill="#60a5fa" fill-opacity="0.22"/><circle cx="1093" cy="522" r="2" fill="#60a5fa" fill-opacity="0.22"/><circle cx="1313" cy="384" r="2" fill="#60a5fa" fill-opacity="0.22"/><circle cx="1177" cy="572" r="2" fill="#60a5fa" fill-opacity="0.22"/><circle cx="1268" cy="604" r="2" fill="#60a5fa" fill-opacity="0.22"/><circle cx="1191" cy="468" r="2" fill="#f59e0b" fill-opacity="0.22"/><circle cx="1077" cy="322" r="2" fill="#60a5fa" fill-opacity="0.22"/><circle cx="1011" cy="446" r="2" fill="#60a5fa" fill-opacity="0.22"/><circle cx="1329" cy="313" r="2" fill="#60a5fa" fill-opacity="0.22"/><circle cx="1104" cy="436" r="2" fill="#60a5fa" fill-opacity="0.22"/><circle cx="1174" cy="297" r="2" fill="#60a5fa" fill-opacity="0.22"/><circle cx="1237" cy="521" r="2" fill="#60a5fa" fill-opacity="0.22"/><circle cx="1160" cy="385" r="2" fill="#60a5fa" fill-opacity="0.22"/><circle cx="1276" cy="312" r="2" fill="#60a5fa" fill-opacity="0.22"/><circle cx="1483" cy="653" r="2" fill="#f59e0b" fill-opacity="0.22"/><circle cx="1110" cy="448" r="2" fill="#60a5fa" fill-opacity="0.22"/><circle cx="1152" cy="359" r="2" fill="#60a5fa" fill-opacity="0.22"/><circle cx="1455" cy="680" r="2" fill="#60a5fa" fill-opacity="0.22"/><circle cx="1089" cy="542" r="2" fill="#60a5fa" fill-opacity="0.22"/><circle cx="1085" cy="362" r="2" fill="#60a5fa" fill-opacity="0.22"/><circle cx="1070" cy="348" r="2" fill="#60a5fa" fill-opacity="0.22"/><circle cx="1469" cy="518" r="2" fill="#60a5fa" fill-opacity="0.22"/><circle cx="1413" cy="517" r="2" fill="#60a5fa" fill-opacity="0.22"/><circle cx="1397" cy="326" r="2" fill="#f59e0b" fill-opacity="0.22"/><circle cx="1165" cy="561" r="2" fill="#60a5fa" fill-opacity="0.22"/><circle cx="1104" cy="403" r="2" fill="#60a5fa" fill-opacity="0.22"/><circle cx="1097" cy="585" r="2" fill="#60a5fa" fill-opacity="0.22"/><circle cx="1109" cy="481" r="2" fill="#60a5fa" fill-opacity="0.22"/><circle cx="1167" cy="505" r="2" fill="#60a5fa" fill-opacity="0.22"/><circle cx="1259" cy="551" r="2" fill="#60a5fa" fill-opacity="0.22"/><circle cx="1221" cy="335" r="2" fill="#60a5fa" fill-opacity="0.22"/><circle cx="1055" cy="515" r="2" fill="#60a5fa" fill-opacity="0.22"/><circle cx="1398" cy="566" r="2" fill="#f59e0b" fill-opacity="0.22"/><circle cx="393" cy="758" r="2" fill="#60a5fa" fill-opacity="0.15"/><circle cx="590" cy="603" r="2" fill="#60a5fa" fill-opacity="0.15"/><circle cx="628" cy="554" r="2" fill="#60a5fa" fill-opacity="0.15"/><circle cx="863" cy="855" r="2" fill="#60a5fa" fill-opacity="0.15"/><circle cx="168" cy="633" r="2" fill="#60a5fa" fill-opacity="0.15"/><circle cx="118" cy="314" r="2" fill="#60a5fa" fill-opacity="0.15"/><circle cx="255" cy="343" r="2" fill="#60a5fa" fill-opacity="0.15"/><circle cx="103" cy="850" r="2" fill="#60a5fa" fill-opacity="0.15"/><circle cx="160" cy="579" r="2" fill="#60a5fa" fill-opacity="0.15"/><circle cx="523" cy="635" r="2" fill="#60a5fa" fill-opacity="0.15"/><circle cx="88" cy="838" r="2" fill="#60a5fa" fill-opacity="0.15"/><circle cx="124" cy="513" r="2" fill="#60a5fa" fill-opacity="0.15"/><circle cx="393" cy="687" r="2" fill="#60a5fa" fill-opacity="0.15"/><circle cx="577" cy="680" r="2" fill="#60a5fa" fill-opacity="0.15"/></svg>